<svg width="94" height="64" viewBox="0 0 94 64" fill="none" xmlns="http://www.w3.org/2000/svg">
<path fill-rule="evenodd" clip-rule="evenodd" d="M47 18.6667C44.0545 18.6667 41.6667 21.0546 41.6667 24.0001V25.3334H40.3333C38.1242 25.3334 36.3333 27.1243 36.3333 29.3334V41.3334C36.3333 43.5426 38.1242 45.3334 40.3333 45.3334H53.6667C55.8758 45.3334 57.6667 43.5426 57.6667 41.3334V29.3334C57.6667 27.1243 55.8758 25.3334 53.6667 25.3334H52.3333V24.0001C52.3333 21.0546 49.9455 18.6667 47 18.6667ZM49.6667 28.0001V30.6667H52.3333V28.0001H53.6667C54.4031 28.0001 55 28.597 55 29.3334V41.3334C55 42.0698 54.4031 42.6667 53.6667 42.6667H40.3333C39.597 42.6667 39 42.0698 39 41.3334V29.3334C39 28.597 39.597 28.0001 40.3333 28.0001H41.6667V30.6667H44.3333V28.0001H49.6667ZM49.6667 25.3334V24.0001C49.6667 22.5273 48.4728 21.3334 47 21.3334C45.5273 21.3334 44.3333 22.5273 44.3333 24.0001V25.3334H49.6667Z" fill="#BDBDBD"/>
</svg>
