<svg width="93" height="64" viewBox="0 0 93 64" fill="none" xmlns="http://www.w3.org/2000/svg">
<path fill-rule="evenodd" clip-rule="evenodd" d="M53.6667 25.3334C53.6667 29.0153 50.6819 32.0001 47 32.0001C43.3181 32.0001 40.3333 29.0153 40.3333 25.3334C40.3333 21.6515 43.3181 18.6667 47 18.6667C50.6819 18.6667 53.6667 21.6515 53.6667 25.3334ZM51 25.3334C51 27.5426 49.2091 29.3334 47 29.3334C44.7909 29.3334 43 27.5426 43 25.3334C43 23.1243 44.7909 21.3334 47 21.3334C49.2091 21.3334 51 23.1243 51 25.3334Z" fill="#BDBDBD"/>
<path d="M37 45.3334C38.3333 45.3334 38.3333 45.334 38.3333 45.3345L38.3335 45.323C38.3337 45.3097 38.3341 45.2869 38.3351 45.2553C38.3371 45.1919 38.3412 45.0932 38.3499 44.9642C38.3672 44.7057 38.4024 44.3285 38.4736 43.8726C38.6171 42.9541 38.9016 41.7514 39.4573 40.566C40.0114 39.3837 40.8179 38.2545 41.9914 37.42C43.1523 36.5945 44.7517 36.0001 47 36.0001C49.2483 36.0001 50.8477 36.5945 52.0085 37.42C53.1821 38.2545 53.9885 39.3837 54.5427 40.566C55.0984 41.7514 55.3829 42.9541 55.5264 43.8726C55.5976 44.3285 55.6328 44.7057 55.6501 44.9642C55.6587 45.0932 55.6629 45.1919 55.6649 45.2553C55.6659 45.2869 55.6663 45.3097 55.6665 45.323L55.6667 45.3345C55.6667 45.334 55.6667 45.3334 57 45.3334C58.3333 45.3334 58.3333 45.3328 58.3333 45.3321L58.3333 45.3305L58.3333 45.3266L58.3332 45.3158L58.3329 45.2827C58.3325 45.2555 58.3317 45.2184 58.3302 45.172C58.3273 45.0791 58.3217 44.9487 58.3108 44.786C58.2891 44.4611 58.2461 44.005 58.1611 43.4609C57.9921 42.3793 57.6516 40.9154 56.9573 39.4342C56.2614 37.9498 55.1929 36.4123 53.5539 35.2468C51.9023 34.0723 49.7517 33.3334 47 33.3334C44.2483 33.3334 42.0977 34.0723 40.446 35.2468C38.8071 36.4123 37.7385 37.9498 37.0427 39.4342C36.3484 40.9154 36.0079 42.3793 35.8389 43.4609C35.7539 44.005 35.7109 44.4611 35.6892 44.786C35.6783 44.9487 35.6727 45.0791 35.6697 45.172C35.6683 45.2184 35.6675 45.2555 35.6671 45.2827L35.6667 45.3158L35.6667 45.3266L35.6667 45.3305V45.3321C35.6667 45.3328 35.6667 45.3334 37 45.3334Z" fill="#BDBDBD"/>
</svg>
