<svg width="94" height="64" viewBox="0 0 94 64" fill="none" xmlns="http://www.w3.org/2000/svg">
<path fill-rule="evenodd" clip-rule="evenodd" d="M36.2157 21.8944C39.3475 19.1702 44.1599 19.4104 46.9861 22.4454L47 22.4604L47.0139 22.4454C49.8401 19.4104 54.6525 19.1702 57.7843 21.8944C60.9424 24.6414 61.205 29.3686 58.3545 32.4297L47.9758 43.5753C47.7236 43.8461 47.3701 44 47 44C46.6299 44 46.2765 43.8461 46.0242 43.5753L35.6456 32.4297C32.7951 29.3686 33.0577 24.6414 36.2157 21.8944ZM45.0345 24.2627C43.1939 22.286 40.0195 22.12 37.9659 23.9063C35.9386 25.6698 35.7808 28.6619 37.5971 30.6124L47 40.7101L56.4029 30.6124C58.2192 28.6619 58.0615 25.6698 56.0342 23.9063C53.9806 22.12 50.8062 22.286 48.9655 24.2627L47.9758 25.3256C47.7236 25.5964 47.3701 25.7503 47 25.7503C46.6299 25.7503 46.2765 25.5964 46.0242 25.3256L45.0345 24.2627Z" fill="#BDBDBD"/>
</svg>
