<svg width="24" height="24" viewBox="0 0 24 24" fill="none" xmlns="http://www.w3.org/2000/svg">
<path fill-rule="evenodd" clip-rule="evenodd" d="M3.91183 4.42076C6.26068 2.37761 9.86996 2.55782 11.9896 4.83407L12 4.8453L12.0105 4.83407C14.1301 2.55782 17.7394 2.37761 20.0883 4.42076C22.4568 6.48105 22.6538 10.0264 20.5159 12.3223L12.7319 20.6815C12.5427 20.8846 12.2776 21 12 21C11.7225 21 11.4574 20.8846 11.2682 20.6815L3.48422 12.3223C1.34632 10.0264 1.54329 6.48105 3.91183 4.42076ZM10.5259 6.19703C9.14542 4.71453 6.76462 4.59003 5.22444 5.92976C3.70396 7.25235 3.58566 9.49644 4.94789 10.9593L12 18.5326L19.0522 10.9593C20.4144 9.49644 20.2961 7.25235 18.7756 5.92976C17.2355 4.59003 14.8547 4.71453 13.4742 6.19703L12.7319 6.99417C12.5427 7.19731 12.2776 7.31269 12 7.31269C11.7225 7.31269 11.4574 7.19731 11.2682 6.99417L10.5259 6.19703Z" fill="#212121"/>
</svg>
