<svg width="24" height="24" viewBox="0 0 24 24" fill="none" xmlns="http://www.w3.org/2000/svg">
<path fill-rule="evenodd" clip-rule="evenodd" d="M16 12.0001C16 14.2092 14.2091 16.0001 12 16.0001C9.79086 16.0001 8 14.2092 8 12.0001C8 9.79095 9.79086 8.00009 12 8.00009C14.2091 8.00009 16 9.79095 16 12.0001ZM14 12.0001C14 13.1047 13.1046 14.0001 12 14.0001C10.8954 14.0001 10 13.1047 10 12.0001C10 10.8955 10.8954 10.0001 12 10.0001C13.1046 10.0001 14 10.8955 14 12.0001Z" fill="#212121"/>
<path fill-rule="evenodd" clip-rule="evenodd" d="M9.98539 3.15563C11.0753 1.98946 12.9247 1.98946 14.0146 3.15563L14.3016 3.46272C14.8452 4.04436 15.6137 4.36267 16.4093 4.33578L16.8294 4.32158C18.4247 4.26767 19.7324 5.57536 19.6785 7.17066L19.6643 7.59075C19.6374 8.38642 19.9557 9.15488 20.5374 9.69849L20.8445 9.9855C22.0106 11.0754 22.0106 12.9248 20.8445 14.0147L20.5374 14.3017C19.9557 14.8453 19.6374 15.6138 19.6643 16.4095L19.6785 16.8295C19.7324 18.4248 18.4247 19.7325 16.8294 19.6786L16.4093 19.6644C15.6137 19.6375 14.8452 19.9558 14.3016 20.5375L14.0146 20.8446C12.9247 22.0107 11.0753 22.0107 9.98539 20.8446L9.69838 20.5375C9.15477 19.9558 8.38631 19.6375 7.59064 19.6644L7.17055 19.6786C5.57525 19.7325 4.26756 18.4248 4.32147 16.8295L4.33567 16.4095C4.36256 15.6138 4.04425 14.8453 3.46262 14.3017L3.15553 14.0147C1.98936 12.9248 1.98936 11.0754 3.15553 9.9855L3.46262 9.69849C4.04425 9.15488 4.36256 8.38642 4.33567 7.59075L4.32147 7.17066C4.26756 5.57536 5.57525 4.26767 7.17055 4.32158L7.59064 4.33578C8.38631 4.36267 9.15477 4.04436 9.69838 3.46272L9.98539 3.15563ZM12.5534 4.52127L12.8404 4.82836C13.7783 5.83185 15.1041 6.38103 16.4769 6.33464L16.897 6.32044C17.3352 6.30563 17.6945 6.66486 17.6797 7.10311L17.6655 7.5232C17.6191 8.89596 18.1682 10.2218 19.1717 11.1597L19.4788 11.4467C19.7992 11.7461 19.7992 12.2541 19.4788 12.5535L19.1717 12.8405C18.1682 13.7784 17.6191 15.1042 17.6655 16.477L17.6797 16.8971C17.6945 17.3353 17.3352 17.6946 16.897 17.6798L16.4769 17.6656C15.1041 17.6192 13.7783 18.1683 12.8404 19.1718L12.5534 19.4789C12.254 19.7993 11.746 19.7993 11.4466 19.4789L11.1596 19.1718C10.2217 18.1683 8.89585 17.6192 7.52309 17.6656L7.103 17.6798C6.66476 17.6946 6.30552 17.3353 6.32033 16.8971L6.33453 16.477C6.38092 15.1042 5.83175 13.7784 4.82826 12.8405L4.52117 12.5535C4.20081 12.2541 4.20081 11.7461 4.52117 11.4467L4.82826 11.1597C5.83175 10.2218 6.38092 8.89596 6.33453 7.5232L6.32033 7.10311C6.30552 6.66486 6.66476 6.30563 7.103 6.32044L7.52309 6.33464C8.89585 6.38103 10.2217 5.83186 11.1596 4.82836L11.4466 4.52127C11.746 4.20092 12.254 4.20092 12.5534 4.52127Z" fill="#212121"/>
</svg>
