<svg width="94" height="64" viewBox="0 0 94 64" fill="none" xmlns="http://www.w3.org/2000/svg">
<path d="M56.3333 22.6667V42.379H52.8737V39.4653C52.2148 40.4725 51.2897 41.2639 50.0984 41.8394C48.9326 42.391 47.64 42.6667 46.2206 42.6667C44.5986 42.6667 43.1412 42.355 41.8486 41.7315C40.556 41.084 39.5295 40.1248 38.7692 38.8538C38.0342 37.5828 37.6667 36.0361 37.6667 34.2135V22.6667H41.0883V33.7819C41.0883 35.7243 41.6078 37.2231 42.647 38.2783C43.6861 39.3094 45.1055 39.825 46.905 39.825C48.7552 39.825 50.2125 39.2855 51.277 38.2063C52.3415 37.1272 52.8737 35.5564 52.8737 33.4941V22.6667H56.3333Z" fill="#212121"/>
</svg>
